<?xml version="1.0" encoding="iso-8859-1"?>
<!-- Generator: Adobe Illustrator 19.0.0, SVG Export Plug-In . SVG Version: 6.00 Build 0)  -->
<svg version="1.1" id="Layer_1" xmlns="http://www.w3.org/2000/svg" xmlns:xlink="http://www.w3.org/1999/xlink" x="0px" y="0px"
	 viewBox="0 0 389.689 389.689" style="enable-background:new 0 0 389.689 389.689;" xml:space="preserve">
<path style="fill:#FFFFFF;" d="M298.602,21.657h-62.319v43.895c0,4.331-2.198,7.564-5.947,9.762l-18.424,9.244
	c-3.232,1.616-6.529,1.616-10.279,0l-20.04-10.861l-12.994,4.848c-7.564,2.715-14.61-2.198-14.61-10.279v-46.61H91.669
	c-5.947,0-10.861,4.848-10.861,10.861v197.818c0,5.947,4.848,10.861,10.861,10.861h207.063c5.948,0,10.861-4.848,10.861-10.861
	V32.517C309.463,26.57,304.549,21.657,298.602,21.657z"/>
<path style="fill:#FFC10D;" d="M287.806,43.378v176.162H102.4v-39.046h8.663c5.947,0,10.861-4.848,10.861-10.861
	c0-5.947-4.848-10.861-10.861-10.861H102.4v-21.657h30.384c5.947,0,10.861-4.848,10.861-10.861c0-5.947-4.848-10.861-10.861-10.861
	H102.4V43.378h51.459v24.954c0,8.145,7.564,12.994,14.61,10.279l12.994-4.848l20.622,11.378c3.814,1.616,7.046,1.616,10.279,0
	l18.424-9.244c3.814-1.616,5.947-5.43,5.947-9.762V43.378C236.735,43.378,287.806,43.378,287.806,43.378z"/>
<path style="fill:#56ACE0;" d="M368.549,338.166c0-16.808-13.576-30.319-30.319-30.319H52.04c-16.808,0-30.319,13.576-30.319,30.319
	s13.576,30.319,30.319,30.319h285.608C354.974,368.549,368.549,354.974,368.549,338.166z"/>
<g>
	<path style="fill:#194F82;" d="M338.166,285.608H52.04c-28.703,0-52.04,23.273-52.04,52.04c0,28.703,23.273,52.04,52.04,52.04
		h285.608c28.703,0,52.04-23.273,52.04-52.04C389.689,308.945,366.933,285.608,338.166,285.608z M337.648,368.549H52.04
		c-16.808,0-30.319-13.576-30.319-30.319c0-16.743,13.576-30.319,30.319-30.319h285.608c16.808,0,30.319,13.576,30.319,30.319
		C367.968,354.974,354.457,368.549,337.648,368.549z"/>
	<path style="fill:#194F82;" d="M63.935,327.37H53.657c-5.947,0-10.861,4.848-10.861,10.861c0,5.947,4.848,10.861,10.861,10.861
		h10.279c5.947,0,10.861-4.848,10.861-10.861S69.883,327.37,63.935,327.37z"/>
	<path style="fill:#194F82;" d="M118.691,327.37h-10.279c-5.947,0-10.861,4.848-10.861,10.861c0,5.947,4.848,10.861,10.861,10.861
		h10.279c5.947,0,10.861-4.848,10.861-10.861S124.638,327.37,118.691,327.37z"/>
	<path style="fill:#194F82;" d="M172.865,327.37h-10.279c-5.947,0-10.861,4.848-10.861,10.861c0,5.947,4.848,10.861,10.861,10.861
		h10.279c5.947,0,10.861-4.848,10.861-10.861S178.812,327.37,172.865,327.37z"/>
	<path style="fill:#194F82;" d="M227.103,327.37h-10.279c-5.947,0-10.861,4.848-10.861,10.861c0,5.947,4.848,10.861,10.861,10.861
		h10.279c5.947,0,10.861-4.848,10.861-10.861C237.899,332.218,233.568,327.37,227.103,327.37z"/>
	<path style="fill:#194F82;" d="M281.794,327.37h-10.279c-5.947,0-10.861,4.848-10.861,10.861c0,5.947,4.848,10.861,10.861,10.861
		h10.279c5.947,0,10.861-4.848,10.861-10.861S287.806,327.37,281.794,327.37z"/>
	<path style="fill:#194F82;" d="M336.032,327.37h-10.343c-5.948,0-10.861,4.848-10.861,10.861c0,5.947,4.849,10.861,10.861,10.861
		h10.343c5.947,0,10.861-4.848,10.861-10.861C346.828,332.218,341.98,327.37,336.032,327.37z"/>
</g>
<path style="fill:#FFFFFF;" d="M187.539,52.04l19.523,10.861l7.564-3.814V21.721h-39.564v30.901l3.232-1.099
	C181.527,50.424,184.824,50.424,187.539,52.04z"/>
<g>
	<path style="fill:#194F82;" d="M298.602,0H91.604C73.697,0,59.087,14.61,59.087,32.517v197.818
		c0,17.907,14.61,32.517,32.517,32.517h207.063c17.907,0,32.517-14.61,32.517-32.517V32.517C331.119,14.61,316.509,0,298.602,0z
		 M309.463,230.335c0,5.947-4.848,10.861-10.861,10.861H91.604c-5.947,0-10.861-4.848-10.861-10.861V32.517
		c0-5.947,4.848-10.861,10.861-10.861h62.319v46.61c0,8.145,7.564,12.994,14.61,10.279l12.994-4.848l20.622,11.378
		c3.814,1.616,7.046,1.616,10.279,0l18.424-9.244c3.814-1.616,5.947-5.43,5.947-9.762V21.657h62.384
		c5.947,0,10.861,4.848,10.861,10.861v197.818H309.463z M175.58,21.657h39.564v37.366l-7.564,3.814l-19.523-10.861
		c-3.232-1.616-6.529-1.616-9.762-0.517l-3.232,1.099V21.657C175.063,21.657,175.58,21.657,175.58,21.657z"/>
	<path style="fill:#194F82;" d="M234.149,215.143c5.947,0,10.861-4.848,10.861-10.861v-18.424c0-5.947-4.848-10.861-10.861-10.861
		c-5.947,0-10.861,4.848-10.861,10.861v18.424C223.289,210.295,228.137,215.143,234.149,215.143z"/>
	<path style="fill:#194F82;" d="M272.614,215.143c5.947,0,10.861-4.848,10.861-10.861v-18.424c0-5.947-4.848-10.861-10.861-10.861
		s-10.861,4.848-10.861,10.861v18.424C261.754,210.295,266.667,215.143,272.614,215.143z"/>
</g>
<g>
</g>
<g>
</g>
<g>
</g>
<g>
</g>
<g>
</g>
<g>
</g>
<g>
</g>
<g>
</g>
<g>
</g>
<g>
</g>
<g>
</g>
<g>
</g>
<g>
</g>
<g>
</g>
<g>
</g>
</svg>
